<svg xmlns="http://www.w3.org/2000/svg" viewBox="0 0 64 64"><linearGradient id="Cp5wM0jolLcVp937tr9tFa" x1="32" x2="32" y1="6.75" y2="57.51" gradientUnits="userSpaceOnUse" spreadMethod="reflect"><stop offset="0" stop-color="#1a6dff"></stop><stop offset="1" stop-color="#c822ff"></stop></linearGradient><path fill="url(#Cp5wM0jolLcVp937tr9tFa)" d="M52,57H12c-2.757,0-5-2.243-5-5V12c0-2.757,2.243-5,5-5h40c2.757,0,5,2.243,5,5v40 C57,54.757,54.757,57,52,57z M12,9c-1.654,0-3,1.346-3,3v40c0,1.654,1.346,3,3,3h40c1.654,0,3-1.346,3-3V12c0-1.654-1.346-3-3-3H12z"></path><linearGradient id="Cp5wM0jolLcVp937tr9tFb" x1="32" x2="32" y1="6.75" y2="57.51" gradientUnits="userSpaceOnUse" spreadMethod="reflect"><stop offset="0" stop-color="#1a6dff"></stop><stop offset="1" stop-color="#c822ff"></stop></linearGradient><path fill="url(#Cp5wM0jolLcVp937tr9tFb)" d="M48,51H16c-1.654,0-3-1.346-3-3V16c0-1.654,1.346-3,3-3h32c1.654,0,3,1.346,3,3v1.418 L31.995,36.167l-7.872-7.872l-2.828,2.824l9.99,9.791c0.188,0.188,0.439,0.09,0.706,0.09c0.001,0,0.002,0,0.003,0 c0.269,0,0.52,0.097,0.708-0.094L51,22.563V48C51,49.654,49.654,51,48,51z M16,15c-0.552,0-1,0.448-1,1v32c0,0.552,0.448,1,1,1h32 c0.552,0,1-0.448,1-1V27.438L34.125,42.312C33.559,42.885,32.805,43,32,43c-0.003,0-0.006,0-0.009,0 c-0.801,0-1.554-0.109-2.12-0.676l-9.99-9.889c-0.781-0.78-0.781-2,0-2.781l2.824-2.799c0.781-0.781,2.051-0.769,2.832,0.013 l6.468,6.474L49,16.582V16c0-0.552-0.448-1-1-1H16z"></path><linearGradient id="Cp5wM0jolLcVp937tr9tFc" x1="22" x2="22" y1="37.25" y2="47.115" gradientUnits="userSpaceOnUse" spreadMethod="reflect"><stop offset="0" stop-color="#6dc7ff"></stop><stop offset="1" stop-color="#e6abff"></stop></linearGradient><path fill="url(#Cp5wM0jolLcVp937tr9tFc)" d="M27,47h-9c-0.552,0-1-0.448-1-1v-9L27,47z"></path></svg>